<svg xmlns="http://www.w3.org/2000/svg" width="4670.387" height="1346.652" viewBox="0 0 4670.387 1346.652">
  <g id="Curve_Line" data-name="Curve Line" transform="translate(0.137 0.983)" opacity="0.05">
    <path id="Path_2" data-name="Path 2" d="M-52.06-62.04C357.7-5.75,574.34,939.53,1258.37,947.954s655.215-223.372,1310.4-223.372c655.215,0,978.115,222.575,1310.43,223.372" transform="translate(52.06 200.084)" fill="none" stroke="rgba(255,255,255,0.58)" stroke-width="2"/>
    <path id="Path_3" data-name="Path 3" d="M-198.81-102.15c413.59,7.116,716,503.066,1567.244,530.477,851.272,27.411,1127.488,781.133,1567.276,804.14" transform="translate(1463.832 112.202)" fill="none" stroke="rgba(255,255,255,0.58)" stroke-width="2"/>
    <path id="Path_4" data-name="Path 4" d="M-251.53-60.6C154.146,35.067,317.5,1115.519,925.227,1120.433c607.764,4.914,850.027-556.963,1176.789-571.833" transform="translate(2465.757 203.239)" fill="none" stroke="rgba(255,255,255,0.58)" stroke-width="2"/>
    <path id="Path_5" data-name="Path 5" d="M-158.16-105.3C325.313-16.111,549.675,1191.249,1313.7,1198.907c764,7.658,1084.664-476.389,1471.832-482.484" transform="translate(1484.29 105.3)" fill="none" stroke="rgba(255,255,255,0.58)" stroke-width="2"/>
    <path id="Path_6" data-name="Path 6" d="M-283.64-6.39C90.6,21.883,354.79,760,1006.718,760.958c651.96.957,953.193-388.8,1290.39-393.135" transform="translate(2373.129 322.015)" fill="none" stroke="rgba(255,255,255,0.58)" stroke-width="2"/>
  </g>
</svg>
