<svg xmlns="http://www.w3.org/2000/svg" xmlns:xlink="http://www.w3.org/1999/xlink" width="196" height="189" viewBox="0 0 196 189">
  <defs>
    <filter id="Path_51" x="0" y="0" width="196" height="189" filterUnits="userSpaceOnUse">
      <feOffset dy="8" input="SourceAlpha"/>
      <feGaussianBlur stdDeviation="22.5" result="blur"/>
      <feFlood flood-opacity="0.439"/>
      <feComposite operator="in" in2="blur"/>
      <feComposite in="SourceGraphic"/>
    </filter>
  </defs>
  <g id="assets_logo_discord" data-name="assets/logo/discord" transform="translate(67.5 59.5)">
    <path id="Discord_logo" d="M36.94,113.9c-.337.631-.758,1.473-1.052,2.147a29.656,29.656,0,0,0-9.051,0c-.295-.674-.716-1.515-1.052-2.147a32.127,32.127,0,0,0-8.209,2.568,33.945,33.945,0,0,0-5.893,22.774A33.66,33.66,0,0,0,21.7,144.335a26.786,26.786,0,0,0,2.147-3.494A22.674,22.674,0,0,1,20.48,139.2c.295-.21.547-.421.842-.631a23.308,23.308,0,0,0,20.08,0,6.273,6.273,0,0,0,.842.631,23.154,23.154,0,0,1-3.41,1.642,26.786,26.786,0,0,0,2.147,3.494,33.358,33.358,0,0,0,10.061-5.094,33.578,33.578,0,0,0-5.893-22.774A31.028,31.028,0,0,0,36.94,113.9ZM24.774,134.611a4.047,4.047,0,0,1,0-8.04,3.8,3.8,0,0,1,3.578,4.041A3.846,3.846,0,0,1,24.774,134.611Zm13.176,0a4.047,4.047,0,0,1,0-8.04,4.047,4.047,0,0,1,0,8.04Z" transform="translate(-1.438 -102.253)" fill="#dcdcdc"/>
    <g transform="matrix(1, 0, 0, 1, -67.5, -59.5)" filter="url(#Path_51)">
      <g id="Path_51-2" data-name="Path 51" transform="translate(67.5 59.5)" fill="none" opacity="0.6">
        <path d="M15,0H46A15.124,15.124,0,0,1,57.426,5.281,14.744,14.744,0,0,1,61,15V39A15,15,0,0,1,46,54H15A15,15,0,0,1,0,39V15A15,15,0,0,1,15,0Z" stroke="none"/>
        <path d="M 15 1 C 11.26047134399414 1 7.744758605957031 2.456249237060547 5.100509643554688 5.100509643554688 C 2.456249237060547 7.744758605957031 1 11.26047134399414 1 15 L 1 39 C 1 42.73952865600586 2.456249237060547 46.25524139404297 5.100509643554688 48.89949035644531 C 7.744758605957031 51.54375076293945 11.26047134399414 53 15 53 L 46 53 C 49.73952865600586 53 53.25524139404297 51.54375076293945 55.89949035644531 48.89949035644531 C 58.54375076293945 46.25524139404297 60 42.73952865600586 60 39 L 60 15 C 60 11.61941146850586 58.78936004638672 8.319149017333984 56.6773796081543 5.944171905517578 C 53.85181045532227 2.755870819091797 50.05984115600586 1 46 1 L 15 1 M 15 0 L 46 0 C 50.4652214050293 0 54.47475051879883 1.951061248779297 57.42578125 5.280918121337891 C 59.57276153564453 7.69525146484375 61 11.18095016479492 61 15 L 61 39 C 61 47.28427124023438 54.28427124023438 54 46 54 L 15 54 C 6.715728759765625 54 0 47.28427124023438 0 39 L 0 15 C 0 6.715728759765625 6.715728759765625 0 15 0 Z" stroke="none" fill="#707070"/>
      </g>
    </g>
  </g>
</svg>
