<svg xmlns="http://www.w3.org/2000/svg" width="32" height="24.537" viewBox="0 0 32 24.537">
  <path id="Discord_logo" d="M32.014,113.9c-.271.509-.611,1.188-.848,1.731a23.909,23.909,0,0,0-7.3,0c-.238-.543-.577-1.222-.848-1.731a25.9,25.9,0,0,0-6.618,2.07,27.366,27.366,0,0,0-4.751,18.36,27.137,27.137,0,0,0,8.077,4.106,21.6,21.6,0,0,0,1.731-2.817,18.28,18.28,0,0,1-2.715-1.324c.238-.17.441-.339.679-.509a18.79,18.79,0,0,0,16.188,0,5.059,5.059,0,0,0,.679.509,18.667,18.667,0,0,1-2.749,1.324,21.594,21.594,0,0,0,1.731,2.817,26.893,26.893,0,0,0,8.111-4.106,27.07,27.07,0,0,0-4.751-18.36A25.014,25.014,0,0,0,32.014,113.9Zm-9.808,16.7a3.263,3.263,0,0,1,0-6.482,3.065,3.065,0,0,1,2.885,3.258A3.1,3.1,0,0,1,22.206,130.6Zm10.622,0a3.263,3.263,0,0,1,0-6.482,3.263,3.263,0,0,1,0,6.482Z" transform="translate(-11.524 -113.9)"/>
</svg>
