<svg xmlns="http://www.w3.org/2000/svg" width="85.025" height="68.014" viewBox="0 0 85.025 68.014">
  <path id="Icon_awesome-hands-helping" data-name="Icon awesome-hands-helping" d="M64.833,25.506H44.639v7.44a9.565,9.565,0,0,1-19.131,0V16.791l-8.622,5.181a8.484,8.484,0,0,0-4.132,7.28v6.284L2.127,41.674A4.241,4.241,0,0,0,.573,47.48L11.2,65.893a4.253,4.253,0,0,0,5.806,1.554l13.737-7.931H48.891a8.51,8.51,0,0,0,8.5-8.5h2.126a4.247,4.247,0,0,0,4.251-4.251v-8.5h1.063a3.181,3.181,0,0,0,3.188-3.188V28.695A3.181,3.181,0,0,0,64.833,25.506Zm19.622-4.969L73.827,2.124A4.253,4.253,0,0,0,68.021.57L54.284,8.5H40.707A8.566,8.566,0,0,0,36.2,9.79l-4.451,2.777a4.223,4.223,0,0,0-1.993,3.6V32.946a5.314,5.314,0,1,0,10.628,0V21.255H64.833a7.444,7.444,0,0,1,7.44,7.44v3.786L82.9,26.343a4.256,4.256,0,0,0,1.554-5.806Z" transform="translate(0.002 -0.001)" fill="#efefef"/>
</svg>
