<svg xmlns="http://www.w3.org/2000/svg" width="32" height="32" viewBox="0 0 32 32">
  <path id="iconmonstr-medium-3" d="M25.333,32H6.667A6.667,6.667,0,0,1,0,25.333V6.667A6.667,6.667,0,0,1,6.667,0H25.333A6.667,6.667,0,0,1,32,6.667V25.333A6.667,6.667,0,0,1,25.333,32Zm1.293-7.532v-.359l-1.663-1.632A.5.5,0,0,1,24.775,22V10a.5.5,0,0,1,.189-.479l1.7-1.632V7.532h-5.9l-4.2,10.484L11.787,7.532H5.6v.359l1.992,2.4a.83.83,0,0,1,.268.7v9.429a1.085,1.085,0,0,1-.288.936L5.333,24.069v.359h6.355v-.359L9.447,21.352a1.13,1.13,0,0,1-.309-.936V12.261l5.577,12.167h.648l4.791-12.167v9.7c0,.259,0,.309-.169.479l-1.723,1.672v.359h8.365Z" fill-rule="evenodd"/>
</svg>
