<!-- opacity="0.11" -->
<svg id="assets_overlay_points" data-name="assets/overlay/points" xmlns="http://www.w3.org/2000/svg" width="824" height="60" viewBox="0 0 824 60">
  <g id="Groupe_49" data-name="Groupe 49" transform="translate(-1733 51.584)" opacity="0.11">
    <ellipse id="Ellipse_49" data-name="Ellipse 49" cx="6.5" cy="7" rx="6.5" ry="7" transform="translate(1826 -51.584)" fill="#6f4dc2"/>
    <circle id="Ellipse_50" data-name="Ellipse 50" cx="7" cy="7" r="7" transform="translate(1849 -51.584)" fill="#6f4dc2"/>
    <circle id="Ellipse_51" data-name="Ellipse 51" cx="7" cy="7" r="7" transform="translate(1872 -51.584)" fill="#6f4dc2"/>
    <circle id="Ellipse_52" data-name="Ellipse 52" cx="7" cy="7" r="7" transform="translate(1895 -51.584)" fill="#6f4dc2"/>
    <circle id="Ellipse_53" data-name="Ellipse 53" cx="7" cy="7" r="7" transform="translate(1918 -51.584)" fill="#6f4dc2"/>
    <circle id="Ellipse_54" data-name="Ellipse 54" cx="7" cy="7" r="7" transform="translate(1941 -51.584)" fill="#6f4dc2"/>
    <circle id="Ellipse_55" data-name="Ellipse 55" cx="7" cy="7" r="7" transform="translate(1964 -51.584)" fill="#6f4dc2"/>
    <circle id="Ellipse_56" data-name="Ellipse 56" cx="7" cy="7" r="7" transform="translate(1987 -51.584)" fill="#6f4dc2"/>
    <ellipse id="Ellipse_57" data-name="Ellipse 57" cx="6.5" cy="7" rx="6.5" ry="7" transform="translate(2011 -51.584)" fill="#6f4dc2"/>
    <circle id="Ellipse_58" data-name="Ellipse 58" cx="7" cy="7" r="7" transform="translate(2034 -51.584)" fill="#6f4dc2"/>
    <circle id="Ellipse_59" data-name="Ellipse 59" cx="7" cy="7" r="7" transform="translate(2057 -51.584)" fill="#6f4dc2"/>
    <circle id="Ellipse_60" data-name="Ellipse 60" cx="7" cy="7" r="7" transform="translate(2080 -51.584)" fill="#6f4dc2"/>
    <circle id="Ellipse_61" data-name="Ellipse 61" cx="7" cy="7" r="7" transform="translate(2103 -51.584)" fill="#6f4dc2"/>
    <circle id="Ellipse_62" data-name="Ellipse 62" cx="7" cy="7" r="7" transform="translate(2126 -51.584)" fill="#6f4dc2"/>
    <circle id="Ellipse_63" data-name="Ellipse 63" cx="7" cy="7" r="7" transform="translate(2149 -51.584)" fill="#6f4dc2"/>
    <ellipse id="Ellipse_64" data-name="Ellipse 64" cx="6.5" cy="7" rx="6.5" ry="7" transform="translate(2173 -51.584)" fill="#6f4dc2"/>
    <circle id="Ellipse_65" data-name="Ellipse 65" cx="7" cy="7" r="7" transform="translate(2196 -51.584)" fill="#6f4dc2"/>
    <circle id="Ellipse_66" data-name="Ellipse 66" cx="7" cy="7" r="7" transform="translate(2219 -51.584)" fill="#6f4dc2"/>
    <circle id="Ellipse_67" data-name="Ellipse 67" cx="7" cy="7" r="7" transform="translate(2242 -51.584)" fill="#6f4dc2"/>
    <circle id="Ellipse_68" data-name="Ellipse 68" cx="7" cy="7" r="7" transform="translate(2265 -51.584)" fill="#6f4dc2"/>
    <circle id="Ellipse_69" data-name="Ellipse 69" cx="7" cy="7" r="7" transform="translate(1733 -51.584)" fill="#6f4dc2"/>
    <circle id="Ellipse_70" data-name="Ellipse 70" cx="7" cy="7" r="7" transform="translate(1756 -51.584)" fill="#6f4dc2"/>
    <circle id="Ellipse_71" data-name="Ellipse 71" cx="7" cy="7" r="7" transform="translate(1779 -51.584)" fill="#6f4dc2"/>
    <circle id="Ellipse_72" data-name="Ellipse 72" cx="7" cy="7" r="7" transform="translate(1802 -51.584)" fill="#6f4dc2"/>
    <ellipse id="Ellipse_73" data-name="Ellipse 73" cx="6.5" cy="7" rx="6.5" ry="7" transform="translate(1826 -28.584)" fill="#6f4dc2"/>
    <circle id="Ellipse_74" data-name="Ellipse 74" cx="7" cy="7" r="7" transform="translate(1849 -28.584)" fill="#6f4dc2"/>
    <circle id="Ellipse_75" data-name="Ellipse 75" cx="7" cy="7" r="7" transform="translate(1872 -28.584)" fill="#6f4dc2"/>
    <circle id="Ellipse_76" data-name="Ellipse 76" cx="7" cy="7" r="7" transform="translate(1895 -28.584)" fill="#6f4dc2"/>
    <circle id="Ellipse_77" data-name="Ellipse 77" cx="7" cy="7" r="7" transform="translate(1918 -28.584)" fill="#6f4dc2"/>
    <circle id="Ellipse_78" data-name="Ellipse 78" cx="7" cy="7" r="7" transform="translate(1941 -28.584)" fill="#6f4dc2"/>
    <circle id="Ellipse_79" data-name="Ellipse 79" cx="7" cy="7" r="7" transform="translate(1964 -28.584)" fill="#6f4dc2"/>
    <circle id="Ellipse_80" data-name="Ellipse 80" cx="7" cy="7" r="7" transform="translate(1987 -28.584)" fill="#6f4dc2"/>
    <ellipse id="Ellipse_81" data-name="Ellipse 81" cx="6.5" cy="7" rx="6.5" ry="7" transform="translate(2011 -28.584)" fill="#6f4dc2"/>
    <circle id="Ellipse_82" data-name="Ellipse 82" cx="7" cy="7" r="7" transform="translate(2034 -28.584)" fill="#6f4dc2"/>
    <circle id="Ellipse_83" data-name="Ellipse 83" cx="7" cy="7" r="7" transform="translate(2057 -28.584)" fill="#6f4dc2"/>
    <circle id="Ellipse_84" data-name="Ellipse 84" cx="7" cy="7" r="7" transform="translate(2080 -28.584)" fill="#6f4dc2"/>
    <circle id="Ellipse_85" data-name="Ellipse 85" cx="7" cy="7" r="7" transform="translate(2103 -28.584)" fill="#6f4dc2"/>
    <circle id="Ellipse_86" data-name="Ellipse 86" cx="7" cy="7" r="7" transform="translate(2126 -28.584)" fill="#6f4dc2"/>
    <circle id="Ellipse_87" data-name="Ellipse 87" cx="7" cy="7" r="7" transform="translate(2149 -28.584)" fill="#6f4dc2"/>
    <ellipse id="Ellipse_88" data-name="Ellipse 88" cx="6.5" cy="7" rx="6.5" ry="7" transform="translate(2173 -28.584)" fill="#6f4dc2"/>
    <circle id="Ellipse_89" data-name="Ellipse 89" cx="7" cy="7" r="7" transform="translate(2196 -28.584)" fill="#6f4dc2"/>
    <circle id="Ellipse_90" data-name="Ellipse 90" cx="7" cy="7" r="7" transform="translate(2219 -28.584)" fill="#6f4dc2"/>
    <circle id="Ellipse_91" data-name="Ellipse 91" cx="7" cy="7" r="7" transform="translate(2242 -28.584)" fill="#6f4dc2"/>
    <circle id="Ellipse_92" data-name="Ellipse 92" cx="7" cy="7" r="7" transform="translate(2265 -28.584)" fill="#6f4dc2"/>
    <circle id="Ellipse_93" data-name="Ellipse 93" cx="7" cy="7" r="7" transform="translate(1733 -28.584)" fill="#6f4dc2"/>
    <circle id="Ellipse_94" data-name="Ellipse 94" cx="7" cy="7" r="7" transform="translate(1756 -28.584)" fill="#6f4dc2"/>
    <circle id="Ellipse_95" data-name="Ellipse 95" cx="7" cy="7" r="7" transform="translate(1779 -28.584)" fill="#6f4dc2"/>
    <circle id="Ellipse_96" data-name="Ellipse 96" cx="7" cy="7" r="7" transform="translate(1802 -28.584)" fill="#6f4dc2"/>
    <ellipse id="Ellipse_97" data-name="Ellipse 97" cx="6.5" cy="7" rx="6.5" ry="7" transform="translate(1826 -5.584)" fill="#6f4dc2"/>
    <circle id="Ellipse_98" data-name="Ellipse 98" cx="7" cy="7" r="7" transform="translate(1849 -5.584)" fill="#6f4dc2"/>
    <circle id="Ellipse_99" data-name="Ellipse 99" cx="7" cy="7" r="7" transform="translate(1872 -5.584)" fill="#6f4dc2"/>
    <circle id="Ellipse_100" data-name="Ellipse 100" cx="7" cy="7" r="7" transform="translate(1895 -5.584)" fill="#6f4dc2"/>
    <circle id="Ellipse_101" data-name="Ellipse 101" cx="7" cy="7" r="7" transform="translate(1918 -5.584)" fill="#6f4dc2"/>
    <circle id="Ellipse_102" data-name="Ellipse 102" cx="7" cy="7" r="7" transform="translate(1941 -5.584)" fill="#6f4dc2"/>
    <circle id="Ellipse_103" data-name="Ellipse 103" cx="7" cy="7" r="7" transform="translate(1964 -5.584)" fill="#6f4dc2"/>
    <circle id="Ellipse_104" data-name="Ellipse 104" cx="7" cy="7" r="7" transform="translate(1987 -5.584)" fill="#6f4dc2"/>
    <ellipse id="Ellipse_105" data-name="Ellipse 105" cx="6.5" cy="7" rx="6.5" ry="7" transform="translate(2011 -5.584)" fill="#6f4dc2"/>
    <circle id="Ellipse_106" data-name="Ellipse 106" cx="7" cy="7" r="7" transform="translate(2034 -5.584)" fill="#6f4dc2"/>
    <circle id="Ellipse_107" data-name="Ellipse 107" cx="7" cy="7" r="7" transform="translate(2057 -5.584)" fill="#6f4dc2"/>
    <circle id="Ellipse_108" data-name="Ellipse 108" cx="7" cy="7" r="7" transform="translate(2080 -5.584)" fill="#6f4dc2"/>
    <circle id="Ellipse_109" data-name="Ellipse 109" cx="7" cy="7" r="7" transform="translate(2103 -5.584)" fill="#6f4dc2"/>
    <circle id="Ellipse_110" data-name="Ellipse 110" cx="7" cy="7" r="7" transform="translate(2126 -5.584)" fill="#6f4dc2"/>
    <circle id="Ellipse_111" data-name="Ellipse 111" cx="7" cy="7" r="7" transform="translate(2149 -5.584)" fill="#6f4dc2"/>
    <ellipse id="Ellipse_112" data-name="Ellipse 112" cx="6.5" cy="7" rx="6.5" ry="7" transform="translate(2173 -5.584)" fill="#6f4dc2"/>
    <circle id="Ellipse_113" data-name="Ellipse 113" cx="7" cy="7" r="7" transform="translate(2196 -5.584)" fill="#6f4dc2"/>
    <circle id="Ellipse_114" data-name="Ellipse 114" cx="7" cy="7" r="7" transform="translate(2219 -5.584)" fill="#6f4dc2"/>
    <circle id="Ellipse_115" data-name="Ellipse 115" cx="7" cy="7" r="7" transform="translate(2242 -5.584)" fill="#6f4dc2"/>
    <circle id="Ellipse_116" data-name="Ellipse 116" cx="7" cy="7" r="7" transform="translate(2265 -5.584)" fill="#6f4dc2"/>
    <circle id="Ellipse_117" data-name="Ellipse 117" cx="7" cy="7" r="7" transform="translate(1733 -5.584)" fill="#6f4dc2"/>
    <circle id="Ellipse_118" data-name="Ellipse 118" cx="7" cy="7" r="7" transform="translate(1756 -5.584)" fill="#6f4dc2"/>
    <circle id="Ellipse_119" data-name="Ellipse 119" cx="7" cy="7" r="7" transform="translate(1779 -5.584)" fill="#6f4dc2"/>
    <circle id="Ellipse_120" data-name="Ellipse 120" cx="7" cy="7" r="7" transform="translate(1802 -5.584)" fill="#6f4dc2"/>
    <circle id="Ellipse_145" data-name="Ellipse 145" cx="7" cy="7" r="7" transform="translate(2288 -51.584)" fill="#6f4dc2"/>
    <circle id="Ellipse_146" data-name="Ellipse 146" cx="7" cy="7" r="7" transform="translate(2311 -51.584)" fill="#6f4dc2"/>
    <circle id="Ellipse_147" data-name="Ellipse 147" cx="7" cy="7" r="7" transform="translate(2334 -51.584)" fill="#6f4dc2"/>
    <ellipse id="Ellipse_148" data-name="Ellipse 148" cx="6.5" cy="7" rx="6.5" ry="7" transform="translate(2358 -51.584)" fill="#6f4dc2"/>
    <circle id="Ellipse_149" data-name="Ellipse 149" cx="7" cy="7" r="7" transform="translate(2381 -51.584)" fill="#6f4dc2"/>
    <circle id="Ellipse_150" data-name="Ellipse 150" cx="7" cy="7" r="7" transform="translate(2404 -51.584)" fill="#6f4dc2"/>
    <circle id="Ellipse_151" data-name="Ellipse 151" cx="7" cy="7" r="7" transform="translate(2427 -51.584)" fill="#6f4dc2"/>
    <circle id="Ellipse_152" data-name="Ellipse 152" cx="7" cy="7" r="7" transform="translate(2450 -51.584)" fill="#6f4dc2"/>
    <circle id="Ellipse_153" data-name="Ellipse 153" cx="7" cy="7" r="7" transform="translate(2473 -51.584)" fill="#6f4dc2"/>
    <circle id="Ellipse_154" data-name="Ellipse 154" cx="7" cy="7" r="7" transform="translate(2496 -51.584)" fill="#6f4dc2"/>
    <ellipse id="Ellipse_155" data-name="Ellipse 155" cx="6.5" cy="7" rx="6.5" ry="7" transform="translate(2520 -51.584)" fill="#6f4dc2"/>
    <circle id="Ellipse_156" data-name="Ellipse 156" cx="7" cy="7" r="7" transform="translate(2543 -51.584)" fill="#6f4dc2"/>
    <circle id="Ellipse_157" data-name="Ellipse 157" cx="7" cy="7" r="7" transform="translate(2288 -28.584)" fill="#6f4dc2"/>
    <circle id="Ellipse_158" data-name="Ellipse 158" cx="7" cy="7" r="7" transform="translate(2311 -28.584)" fill="#6f4dc2"/>
    <circle id="Ellipse_159" data-name="Ellipse 159" cx="7" cy="7" r="7" transform="translate(2334 -28.584)" fill="#6f4dc2"/>
    <ellipse id="Ellipse_160" data-name="Ellipse 160" cx="6.5" cy="7" rx="6.5" ry="7" transform="translate(2358 -28.584)" fill="#6f4dc2"/>
    <circle id="Ellipse_161" data-name="Ellipse 161" cx="7" cy="7" r="7" transform="translate(2381 -28.584)" fill="#6f4dc2"/>
    <circle id="Ellipse_162" data-name="Ellipse 162" cx="7" cy="7" r="7" transform="translate(2404 -28.584)" fill="#6f4dc2"/>
    <circle id="Ellipse_163" data-name="Ellipse 163" cx="7" cy="7" r="7" transform="translate(2427 -28.584)" fill="#6f4dc2"/>
    <circle id="Ellipse_164" data-name="Ellipse 164" cx="7" cy="7" r="7" transform="translate(2450 -28.584)" fill="#6f4dc2"/>
    <circle id="Ellipse_165" data-name="Ellipse 165" cx="7" cy="7" r="7" transform="translate(2473 -28.584)" fill="#6f4dc2"/>
    <circle id="Ellipse_166" data-name="Ellipse 166" cx="7" cy="7" r="7" transform="translate(2496 -28.584)" fill="#6f4dc2"/>
    <ellipse id="Ellipse_167" data-name="Ellipse 167" cx="6.5" cy="7" rx="6.5" ry="7" transform="translate(2520 -28.584)" fill="#6f4dc2"/>
    <circle id="Ellipse_168" data-name="Ellipse 168" cx="7" cy="7" r="7" transform="translate(2543 -28.584)" fill="#6f4dc2"/>
    <circle id="Ellipse_169" data-name="Ellipse 169" cx="7" cy="7" r="7" transform="translate(2288 -5.584)" fill="#6f4dc2"/>
    <circle id="Ellipse_170" data-name="Ellipse 170" cx="7" cy="7" r="7" transform="translate(2311 -5.584)" fill="#6f4dc2"/>
    <circle id="Ellipse_171" data-name="Ellipse 171" cx="7" cy="7" r="7" transform="translate(2334 -5.584)" fill="#6f4dc2"/>
    <ellipse id="Ellipse_172" data-name="Ellipse 172" cx="6.5" cy="7" rx="6.5" ry="7" transform="translate(2358 -5.584)" fill="#6f4dc2"/>
    <circle id="Ellipse_173" data-name="Ellipse 173" cx="7" cy="7" r="7" transform="translate(2381 -5.584)" fill="#6f4dc2"/>
    <circle id="Ellipse_174" data-name="Ellipse 174" cx="7" cy="7" r="7" transform="translate(2404 -5.584)" fill="#6f4dc2"/>
    <circle id="Ellipse_175" data-name="Ellipse 175" cx="7" cy="7" r="7" transform="translate(2427 -5.584)" fill="#6f4dc2"/>
    <circle id="Ellipse_176" data-name="Ellipse 176" cx="7" cy="7" r="7" transform="translate(2450 -5.584)" fill="#6f4dc2"/>
    <circle id="Ellipse_177" data-name="Ellipse 177" cx="7" cy="7" r="7" transform="translate(2473 -5.584)" fill="#6f4dc2"/>
    <circle id="Ellipse_178" data-name="Ellipse 178" cx="7" cy="7" r="7" transform="translate(2496 -5.584)" fill="#6f4dc2"/>
    <ellipse id="Ellipse_179" data-name="Ellipse 179" cx="6.5" cy="7" rx="6.5" ry="7" transform="translate(2520 -5.584)" fill="#6f4dc2"/>
    <circle id="Ellipse_180" data-name="Ellipse 180" cx="7" cy="7" r="7" transform="translate(2543 -5.584)" fill="#6f4dc2"/>
  </g>
</svg>
