<svg xmlns="http://www.w3.org/2000/svg" width="32" height="26.007" viewBox="0 0 32 26.007">
  <path id="twitter_1_" d="M87.067,75.854c12.076,0,18.68-10,18.68-18.68q0-.426-.019-.849a13.353,13.353,0,0,0,3.275-3.4,13.1,13.1,0,0,1-3.77,1.034,6.589,6.589,0,0,0,2.887-3.631,13.166,13.166,0,0,1-4.169,1.594,6.571,6.571,0,0,0-11.188,5.987,18.643,18.643,0,0,1-13.533-6.86,6.571,6.571,0,0,0,2.033,8.765,6.515,6.515,0,0,1-2.973-.821c0,.028,0,.054,0,.084a6.567,6.567,0,0,0,5.267,6.436,6.559,6.559,0,0,1-2.965.113,6.573,6.573,0,0,0,6.133,4.56A13.171,13.171,0,0,1,78.57,73,13.371,13.371,0,0,1,77,72.9a18.584,18.584,0,0,0,10.064,2.949" transform="translate(-77.004 -49.847)"/>
</svg>
