<svg xmlns="http://www.w3.org/2000/svg" xmlns:xlink="http://www.w3.org/1999/xlink" width="196" height="189" viewBox="0 0 196 189">
  <defs>
    <filter id="Rectangle_27" x="0" y="0" width="196" height="189" filterUnits="userSpaceOnUse">
      <feOffset dy="8" input="SourceAlpha"/>
      <feGaussianBlur stdDeviation="22.5" result="blur"/>
      <feFlood flood-opacity="0.439"/>
      <feComposite operator="in" in2="blur"/>
      <feComposite in="SourceGraphic"/>
    </filter>
  </defs>
  <g id="assets_logo_twitter" data-name="assets/logo/twitter" transform="translate(67.5 59.5)">
    <path id="twitter_1_" d="M88.7,80.07c14.034,0,21.709-11.627,21.709-21.709q0-.5-.022-.986a15.518,15.518,0,0,0,3.806-3.951,15.219,15.219,0,0,1-4.382,1.2,7.658,7.658,0,0,0,3.355-4.22,15.3,15.3,0,0,1-4.845,1.852,7.636,7.636,0,0,0-13,6.958,21.666,21.666,0,0,1-15.728-7.972,7.636,7.636,0,0,0,2.362,10.186,7.571,7.571,0,0,1-3.456-.954c0,.032,0,.063,0,.1a7.632,7.632,0,0,0,6.121,7.479,7.623,7.623,0,0,1-3.446.131,7.638,7.638,0,0,0,7.128,5.3,15.306,15.306,0,0,1-9.476,3.266A15.54,15.54,0,0,1,77,76.643,21.6,21.6,0,0,0,88.7,80.07" transform="translate(-65.125 -37.424)" fill="#dcdcdc"/>
    <g transform="matrix(1, 0, 0, 1, -67.5, -59.5)" filter="url(#Rectangle_27)">
      <g id="Rectangle_27-2" data-name="Rectangle 27" transform="translate(67.5 59.5)" fill="none" stroke="#707070" stroke-width="1" opacity="0.6">
        <rect width="61" height="54" rx="15" stroke="none"/>
        <rect x="0.5" y="0.5" width="60" height="53" rx="14.5" fill="none"/>
      </g>
    </g>
  </g>
</svg>
